# Blender v2.77 (sub 0) OBJ File: 'DirectX_Character.blend'
# www.blender.org
v -0.521593 1.497355 -1.147719
v -0.521593 1.497354 1.147720
v 0.521593 1.497354 1.147719
v 0.521592 1.497355 -1.147720
v -0.521593 -1.497354 -1.147719
v 0.521593 -1.497354 -1.147719
v 0.521593 -1.497355 1.147719
v -0.521592 -1.497355 1.147720
vt 0.4394 0.5011
vt 0.3146 0.3735
vt 0.4410 0.3801
vt 0.1837 0.4944
vt 0.1293 0.3824
vt 0.1854 0.3802
vt 0.6255 0.0057
vt 0.5057 0.3700
vt 0.6222 0.3753
vt 0.3092 -0.0025
vt 0.2496 0.3734
vt 0.3092 0.3734
vt 0.3127 0.3722
vt 0.4389 0.0002
vt 0.4389 0.3722
vt 0.5000 -0.0052
vt 0.4412 0.3708
vt 0.4412 -0.0052
vt 0.3130 0.4945
vt 0.1276 0.4966
vt 0.5090 0.0005
vt 0.2496 -0.0025
vt 0.3127 0.0002
vt 0.5000 0.3708
vn 0.0000 1.0000 0.0000
vn -0.0000 -1.0000 -0.0000
vn -1.0000 0.0000 0.0000
vn 0.0000 -0.0000 1.0000
vn 1.0000 0.0000 -0.0000
vn 0.0000 -0.0000 -1.0000
s off
f 1/1/1 3/2/1 4/3/1
f 5/4/2 7/5/2 8/6/2
f 5/7/3 2/8/3 1/9/3
f 8/10/4 3/11/4 2/12/4
f 3/13/5 6/14/5 4/15/5
f 5/16/6 4/17/6 6/18/6
f 1/1/1 2/19/1 3/2/1
f 5/4/2 6/20/2 7/5/2
f 5/7/3 8/21/3 2/8/3
f 8/10/4 7/22/4 3/11/4
f 3/13/5 7/23/5 6/14/5
f 5/16/6 1/24/6 4/17/6
