# Blender v2.77 (sub 0) OBJ File: 'DirectX_Character.blend'
# www.blender.org
v -1.000000 1.993361 1.013168
v -1.000000 -0.006596 0.999978
v 1.000000 0.006595 -0.999978
v -1.000000 0.006595 -0.999978
v -1.000000 2.006551 -0.986788
v 0.999999 2.006552 -0.986788
v 1.000000 -0.006595 0.999978
v 1.000000 1.993361 1.013168
vt 0.3749 0.5064
vt 0.2501 0.7473
vt 0.2493 0.5042
vt 0.2508 0.5033
vt 0.1262 0.7475
vt 0.1257 0.5033
vt 0.2491 0.7560
vt 0.1258 0.9999
vt 0.1255 0.7559
vt 0.5007 0.7500
vt 0.3759 0.5035
vt 0.3767 0.7493
vt 0.3692 0.7619
vt 0.2540 0.9918
vt 0.2540 0.7619
vt 0.1238 0.5013
vt 0.0021 0.7535
vt 0.0013 0.5033
vt 0.3749 0.7496
vt 0.2511 0.7488
vt 0.2491 0.9999
vt 0.5000 0.5025
vt 0.3692 0.9918
vt 0.1242 0.7503
vn 0.0000 0.0066 -1.0000
vn 1.0000 -0.0000 0.0000
vn 0.0000 1.0000 0.0066
vn -1.0000 0.0000 0.0000
vn 0.0000 -1.0000 -0.0066
vn 0.0000 -0.0066 1.0000
s off
f 4/1/1 6/2/1 3/3/1
f 3/4/2 8/5/2 7/6/2
f 6/7/3 1/8/3 8/9/3
f 5/10/4 2/11/4 1/12/4
f 7/13/5 4/14/5 3/15/5
f 7/16/6 1/17/6 2/18/6
f 4/1/1 5/19/1 6/2/1
f 3/4/2 6/20/2 8/5/2
f 6/7/3 5/21/3 1/8/3
f 5/10/4 4/22/4 2/11/4
f 7/13/5 2/23/5 4/14/5
f 7/16/6 8/24/6 1/17/6
