# Blender v2.77 (sub 0) OBJ File: 'DirectX_Character.blend'
# www.blender.org
v -0.521593 -1.497354 -0.568124
v 0.521593 -1.497354 -0.568124
v 0.521593 -1.497354 0.568123
v -0.521592 -1.497354 0.568124
v 0.521593 -0.000000 0.568124
v -0.521592 -0.000000 0.568124
v -0.521593 0.000000 -0.568124
v 0.521592 0.000000 -0.568124
vt 0.1304 0.4867
vt 0.1778 0.4012
vt 0.1791 0.4899
vt 0.2502 0.0014
vt 0.1906 0.1832
vt 0.2502 0.1859
vt 0.0009 0.0101
vt 0.0630 0.1917
vt 0.0009 0.1917
vt 0.0654 0.0035
vt 0.1251 0.1896
vt 0.0655 0.1897
vt 0.0008 0.0096
vt 0.0595 0.1937
vt 0.0595 0.0096
vt 0.0528 0.1393
vt 0.1329 0.3138
vt 0.0528 0.3138
vt 0.1291 0.3980
vt 0.1906 -0.0013
vt 0.0630 0.0101
vt 0.1249 0.0033
vt 0.0008 0.1937
vt 0.1329 0.1393
vn 0.0000 -1.0000 -0.0000
vn -1.0000 0.0000 0.0000
vn 0.0000 -0.0000 1.0000
vn 1.0000 0.0000 -0.0000
vn 0.0000 0.0000 -1.0000
vn -0.0000 1.0000 0.0000
s off
f 2/1/1 4/2/1 1/3/1
f 1/4/2 6/5/2 7/6/2
f 4/7/3 5/8/3 6/9/3
f 3/10/4 8/11/4 5/12/4
f 1/13/5 8/14/5 2/15/5
f 8/16/6 6/17/6 5/18/6
f 2/1/1 3/19/1 4/2/1
f 1/4/2 4/20/2 6/5/2
f 4/7/3 3/21/3 5/8/3
f 3/10/4 2/22/4 8/11/4
f 1/13/5 7/23/5 8/14/5
f 8/16/6 7/24/6 6/17/6
