# Blender v2.77 (sub 0) OBJ File: 'DirectX_Character.blend'
# www.blender.org
v -0.515523 0.008045 0.573579
v 0.527528 -0.004529 0.562599
v 0.515523 -0.008045 -0.573580
v -0.527528 0.004529 -0.562599
v -0.545527 -1.492709 -0.557774
v -0.533522 -1.489193 0.578405
v 0.509530 -1.501767 0.567423
v 0.497525 -1.505283 -0.568756
vt 0.6015 0.2894
vt 0.5481 0.1826
vt 0.6026 0.1813
vt 0.6938 0.0019
vt 0.7503 0.1918
vt 0.6925 0.1895
vt 0.6883 0.1905
vt 0.7488 0.0001
vt 0.7488 0.1846
vt 0.6876 0.0043
vt 0.7518 0.1832
vt 0.6882 0.1869
vt 0.6910 0.1897
vt 0.7499 -0.0021
vt 0.6901 0.0040
vt 0.8082 0.3793
vt 0.7545 0.4962
vt 0.7545 0.3793
vt 0.5463 0.2921
vt 0.7475 0.0084
vt 0.6883 0.0060
vt 0.7512 0.0006
vt 0.7507 0.1836
vt 0.8082 0.4962
vn 0.0120 0.9999 -0.0032
vn -0.9999 0.0121 0.0105
vn -0.0106 -0.0031 -0.9999
vn 0.9999 -0.0121 -0.0105
vn 0.0106 0.0031 0.9999
vn -0.0120 -0.9999 0.0032
s off
f 1/1/1 3/2/1 4/3/1
f 1/4/2 5/5/2 6/6/2
f 5/7/3 3/8/3 8/9/3
f 3/10/4 7/11/4 8/12/4
f 6/13/5 2/14/5 1/15/5
f 6/16/6 8/17/6 7/18/6
f 1/1/1 2/19/1 3/2/1
f 1/4/2 4/20/2 5/5/2
f 5/7/3 4/21/3 3/8/3
f 3/10/4 2/22/4 7/11/4
f 6/13/5 7/23/5 2/14/5
f 6/16/6 5/24/6 8/17/6
